<mxfile host="app.diagrams.net" agent="Mozilla/5.0 (Windows NT 10.0; Win64; x64) AppleWebKit/537.36 (KHTML, like Gecko) Chrome/131.0.0.0 Safari/537.36" version="25.0.3">
  <diagram id="C5RBs43oDa-KdzZeNtuy" name="Page-1">
    <mxGraphModel dx="1050" dy="557" grid="1" gridSize="10" guides="1" tooltips="1" connect="1" arrows="1" fold="1" page="1" pageScale="1" pageWidth="827" pageHeight="1169" math="0" shadow="0">
      <root>
        <mxCell id="WIyWlLk6GJQsqaUBKTNV-0" />
        <mxCell id="WIyWlLk6GJQsqaUBKTNV-1" parent="WIyWlLk6GJQsqaUBKTNV-0" />
        <mxCell id="c67ADvHthq7CfKDPiRkk-3" value="" style="edgeStyle=orthogonalEdgeStyle;rounded=0;orthogonalLoop=1;jettySize=auto;html=1;" edge="1" parent="WIyWlLk6GJQsqaUBKTNV-1" source="c67ADvHthq7CfKDPiRkk-0" target="c67ADvHthq7CfKDPiRkk-1">
          <mxGeometry relative="1" as="geometry" />
        </mxCell>
        <mxCell id="c67ADvHthq7CfKDPiRkk-0" value="Inicio" style="ellipse;whiteSpace=wrap;html=1;aspect=fixed;" vertex="1" parent="WIyWlLk6GJQsqaUBKTNV-1">
          <mxGeometry x="110" y="20" width="90" height="90" as="geometry" />
        </mxCell>
        <mxCell id="c67ADvHthq7CfKDPiRkk-5" value="" style="edgeStyle=orthogonalEdgeStyle;rounded=0;orthogonalLoop=1;jettySize=auto;html=1;" edge="1" parent="WIyWlLk6GJQsqaUBKTNV-1" source="c67ADvHthq7CfKDPiRkk-1" target="c67ADvHthq7CfKDPiRkk-4">
          <mxGeometry relative="1" as="geometry" />
        </mxCell>
        <mxCell id="c67ADvHthq7CfKDPiRkk-1" value="Mostrar mensaje: &quot;Por favor ingrese el radio del circulo&quot;" style="shape=parallelogram;perimeter=parallelogramPerimeter;whiteSpace=wrap;html=1;fixedSize=1;" vertex="1" parent="WIyWlLk6GJQsqaUBKTNV-1">
          <mxGeometry x="70" y="150" width="180" height="100" as="geometry" />
        </mxCell>
        <mxCell id="c67ADvHthq7CfKDPiRkk-7" value="" style="edgeStyle=orthogonalEdgeStyle;rounded=0;orthogonalLoop=1;jettySize=auto;html=1;" edge="1" parent="WIyWlLk6GJQsqaUBKTNV-1" source="c67ADvHthq7CfKDPiRkk-4" target="c67ADvHthq7CfKDPiRkk-6">
          <mxGeometry relative="1" as="geometry" />
        </mxCell>
        <mxCell id="c67ADvHthq7CfKDPiRkk-4" value="Definir y asignar a la variable area el resultado de Ï€ * radio*2 de tipo float" style="rounded=1;whiteSpace=wrap;html=1;" vertex="1" parent="WIyWlLk6GJQsqaUBKTNV-1">
          <mxGeometry x="70" y="290" width="180" height="120" as="geometry" />
        </mxCell>
        <mxCell id="c67ADvHthq7CfKDPiRkk-9" value="" style="edgeStyle=orthogonalEdgeStyle;rounded=0;orthogonalLoop=1;jettySize=auto;html=1;" edge="1" parent="WIyWlLk6GJQsqaUBKTNV-1" source="c67ADvHthq7CfKDPiRkk-6" target="c67ADvHthq7CfKDPiRkk-8">
          <mxGeometry relative="1" as="geometry" />
        </mxCell>
        <mxCell id="c67ADvHthq7CfKDPiRkk-6" value="Mostrar mensaje &quot;El area del circulo con radio&quot; ,radio, &quot;es: &quot;, area" style="shape=parallelogram;perimeter=parallelogramPerimeter;whiteSpace=wrap;html=1;fixedSize=1;" vertex="1" parent="WIyWlLk6GJQsqaUBKTNV-1">
          <mxGeometry x="70" y="440" width="180" height="100" as="geometry" />
        </mxCell>
        <mxCell id="c67ADvHthq7CfKDPiRkk-8" value="Fin" style="ellipse;whiteSpace=wrap;html=1;" vertex="1" parent="WIyWlLk6GJQsqaUBKTNV-1">
          <mxGeometry x="120" y="580" width="80" height="80" as="geometry" />
        </mxCell>
      </root>
    </mxGraphModel>
  </diagram>
</mxfile>
